<svg width="24" height="24" viewBox="0 0 24 24" fill="none" xmlns="http://www.w3.org/2000/svg">
<path d="M11.1998 12.8C11.8625 12.8 12.3997 12.2627 12.3997 11.6C12.3997 10.9373 11.8625 10.4 11.1998 10.4C10.537 10.4 9.99976 10.9373 9.99976 11.6C9.99976 12.2627 10.537 12.8 11.1998 12.8Z" fill="#000000"/>
<path fill-rule="evenodd" clip-rule="evenodd" d="M16.5999 21.7999C18.069 21.7999 19.2914 20.744 19.5496 19.3497C20.9439 19.0914 21.9998 17.869 21.9998 16.4V4.99999C21.9998 3.34314 20.6566 2 18.9998 2H8.7998C7.33072 2 6.10827 3.05596 5.85006 4.45027C4.46104 4.70756 3.40784 5.92178 3.39995 7.38345C3.13122 7.49772 2.88414 7.6632 2.67365 7.87368C2.24232 8.30502 2 8.89003 2 9.50003V19.7C2 20.31 2.24232 20.895 2.67365 21.3263C3.10499 21.7577 3.69 22 4.29999 22H14.5C14.8264 22 15.1457 21.9306 15.4382 21.7999H16.5999ZM4.61088 7.20003C4.71035 6.30002 5.47337 5.59999 6.3999 5.59999H16.5999C17.594 5.59999 18.3999 6.40588 18.3999 7.39999V18.8C18.3999 19.7885 17.603 20.5909 16.6166 20.5999C16.7365 20.318 16.8 20.0123 16.8 19.7V9.50003C16.8 8.89003 16.5576 8.30502 16.1263 7.87368C15.695 7.44235 15.11 7.20003 14.5 7.20003H4.61088ZM8.7998 3.2C8.01607 3.2 7.34933 3.70088 7.10222 4.39999H16.5999C18.2567 4.39999 19.5999 5.74314 19.5999 7.39999V18.0975C20.2989 17.8504 20.7998 17.1837 20.7998 16.4V4.99999C20.7998 4.00588 19.9939 3.2 18.9998 3.2H8.7998ZM3.52218 20.4778C3.31589 20.2715 3.2 19.9917 3.2 19.7V18.2485L6.92235 14.5262C7.12863 14.32 7.40834 14.2042 7.69999 14.2042C7.99164 14.2042 8.27141 14.3201 8.47768 14.5262L12.3757 18.4243C12.61 18.6586 12.9899 18.6586 13.2242 18.4243C13.4586 18.19 13.4586 17.8101 13.2242 17.5757L11.9485 16.3L12.8723 15.3762C13.0786 15.17 13.3583 15.0542 13.65 15.0542C13.9416 15.0542 14.2214 15.1701 14.4277 15.3762L15.6 16.5485V19.7C15.6 19.9917 15.4841 20.2715 15.2778 20.4778C15.0715 20.6841 14.7917 20.8 14.5 20.8H4.29999C4.00826 20.8 3.72847 20.6841 3.52218 20.4778ZM9.32615 13.6777L11.1 15.4515L12.0239 14.5276C12.4552 14.0964 13.0401 13.8542 13.65 13.8542C14.2598 13.8542 14.8448 14.0965 15.2761 14.5276L15.6 14.8515V9.50003C15.6 9.20829 15.4841 8.9285 15.2778 8.72221C15.0715 8.51592 14.7917 8.40003 14.5 8.40003H4.29999C4.00826 8.40003 3.72847 8.51592 3.52218 8.72221C3.31589 8.9285 3.2 9.20829 3.2 9.50003V16.5515L6.07389 13.6776C6.5052 13.2464 7.09011 13.0042 7.69999 13.0042C8.30986 13.0042 8.89483 13.2465 9.32615 13.6777Z" fill="#000000"/>
</svg>
